<svg xmlns="http://www.w3.org/2000/svg" width="1440" height="360" viewBox="0 0 1320 330" role="img" aria-labelledby="title"><title id="title">PhotonBid A — full logo</title><rect width="1320" height="330" fill="#F7F5F0"/><path fill="#6236D9" transform="translate(48 39.5)" d="M0 0H118C149 0 172 23 172 53C172 75 159 94 137 105H160C192 105 216 129 216 158C216 189 191 215 160 215H93C85 215 80 216 75 218V123L63 129V223L0 251V151L163 59L0 121Z"/><path fill="#181827" fill-rule="evenodd" transform="translate(306 100.5)" d="M295.373,146.021 C267.984,138.841 252.847,116.838 256.772,89.912 C261.762,55.671 300.268,36.629 336.000,50.732 C352.341,57.182 363.326,69.547 367.386,86.064 C370.216,97.574 368.812,109.517 363.367,120.263 C359.809,127.284 348.952,137.839 341.707,141.320 C327.899,147.955 309.766,149.795 295.373,146.021 Z M320.481,121.884 C326.795,120.131 332.281,115.734 335.500,109.848 C337.960,105.348 338.418,103.390 338.389,97.500 C338.312,81.872 328.018,71.824 312.085,71.824 C303.998,71.824 298.914,73.745 293.631,78.799 C288.141,84.050 286.048,89.133 286.022,97.282 C285.997,105.086 287.415,109.125 292.023,114.374 C298.703,121.982 309.687,124.880 320.481,121.884 Z M412.500,146.657 C401.262,143.725 393.503,137.363 389.758,128.011 C387.751,123.000 387.504,120.234 387.026,97.500 L386.500,72.500 L378.124,72.500 L369.749,72.500 L369.667,60.500 L369.585,48.500 L378.293,48.211 L387.000,47.922 L387.000,33.961 L387.000,20.000 L401.500,20.000 L416.000,20.000 L416.000,34.000 L416.000,48.000 L431.031,48.000 L446.062,48.000 L445.781,60.080 L445.500,72.161 L431.000,72.330 L416.500,72.500 L416.199,92.500 C416.017,104.557 416.318,113.945 416.956,116.140 C418.948,122.989 426.647,125.315 438.312,122.591 C442.059,121.716 445.321,121.000 445.562,121.000 C445.803,121.000 446.000,126.120 446.000,132.378 L446.000,143.757 L439.384,145.419 C430.266,147.709 418.594,148.247 412.500,146.657 Z M491.308,146.441 C477.143,143.335 462.379,132.601 456.608,121.213 C449.032,106.263 449.081,88.654 456.741,73.528 C460.247,66.603 470.269,56.903 477.890,53.055 C511.651,36.013 552.581,50.963 562.612,84.000 C564.357,89.746 564.371,104.025 562.639,110.500 C557.842,128.429 542.341,142.330 522.500,146.496 C513.940,148.293 499.637,148.268 491.308,146.441 Z M516.386,121.584 C522.630,119.705 527.348,115.965 530.728,110.216 C533.140,106.113 533.498,104.460 533.483,97.500 C533.462,88.056 531.383,83.196 525.042,77.768 C520.087,73.527 515.237,72.000 506.717,72.000 C492.469,72.000 482.722,80.608 481.293,94.451 C479.942,107.539 486.894,118.385 498.994,122.066 C503.121,123.321 511.374,123.093 516.386,121.584 Z M896.348,146.647 C878.238,142.018 863.848,127.150 860.105,109.201 C858.690,102.413 858.692,91.571 860.110,84.799 C861.824,76.612 867.692,66.217 874.155,59.916 C891.123,43.375 918.090,41.424 934.849,55.526 L937.965,58.148 L938.232,33.324 L938.500,8.500 L952.675,8.223 L966.849,7.946 L967.422,13.223 C967.737,16.125 967.884,47.075 967.748,82.000 L967.500,145.500 L953.250,145.777 L939.000,146.055 L939.000,141.027 C939.000,138.262 938.734,136.000 938.409,136.000 C938.084,136.000 935.982,137.571 933.738,139.492 C931.495,141.413 927.148,143.924 924.079,145.072 C917.051,147.703 903.491,148.473 896.348,146.647 Z M926.159,121.032 C929.008,119.949 932.838,117.611 934.670,115.835 L938.000,112.608 L938.000,96.950 C938.000,81.856 937.914,81.200 935.626,78.731 C930.922,73.654 925.292,71.596 916.000,71.553 C908.634,71.519 906.808,71.878 902.312,74.242 C893.708,78.767 889.128,86.583 889.044,96.884 C888.984,104.202 890.668,109.252 894.761,114.034 C902.097,122.605 914.654,125.403 926.159,121.032 Z M11.000,77.593 L11.000,9.187 L20.577,8.469 C36.997,7.238 87.512,8.573 94.897,10.434 C104.113,12.756 114.322,18.452 119.411,24.112 C127.031,32.588 129.935,40.978 129.976,54.645 C130.022,70.149 124.235,81.622 112.328,89.626 C101.967,96.592 96.099,98.091 75.500,99.037 C65.600,99.491 54.013,99.894 49.750,99.931 L42.000,100.000 L42.000,123.000 L42.000,146.000 L26.500,146.000 L11.000,146.000 L11.000,77.593 Z M87.852,71.518 C99.519,66.647 102.527,49.594 93.340,40.407 C88.014,35.081 82.528,34.000 60.818,34.000 L42.000,34.000 L42.000,53.333 C42.000,63.967 42.337,73.012 42.750,73.435 C43.163,73.857 52.500,74.008 63.500,73.769 C79.873,73.414 84.289,73.006 87.852,71.518 Z M143.243,77.250 L143.500,8.500 L157.867,8.500 L172.233,8.500 L172.367,33.748 C172.440,47.635 172.660,58.997 172.856,58.998 C173.052,58.999 174.852,57.709 176.856,56.131 C191.502,44.598 211.921,42.845 228.229,51.721 C238.281,57.192 245.187,68.508 247.032,82.531 C247.617,86.976 247.952,102.661 247.790,118.000 L247.500,145.500 L232.750,145.777 L218.000,146.053 L218.000,116.495 C218.000,92.157 217.728,86.286 216.462,83.254 C213.047,75.081 206.888,71.584 196.000,71.635 C184.890,71.686 178.326,75.582 174.298,84.514 C172.770,87.901 172.477,91.655 172.346,109.500 C172.261,121.050 172.148,133.988 172.096,138.250 L172.000,146.000 L157.493,146.000 L142.986,146.000 L143.243,77.250 Z M574.469,144.778 C574.199,144.075 574.096,122.125 574.240,96.000 L574.500,48.500 L588.250,48.222 L602.000,47.944 L602.000,54.599 L602.000,61.255 L606.575,57.038 C623.104,41.802 653.220,42.768 668.425,59.023 C674.069,65.057 677.494,72.190 678.979,81.000 C679.651,84.988 679.963,98.705 679.787,116.500 L679.500,145.500 L664.750,145.777 L650.000,146.053 L650.000,117.676 C650.000,87.782 649.676,85.129 645.304,79.241 C638.654,70.283 622.238,68.699 612.109,76.036 C604.627,81.456 604.562,81.771 604.000,115.500 L603.500,145.500 L589.229,145.778 C578.365,145.989 574.842,145.750 574.469,144.778 Z M694.243,77.346 L694.500,8.500 L731.000,8.555 C770.018,8.613 775.543,9.175 785.121,14.062 C791.373,17.251 797.666,23.620 800.730,29.858 C803.168,34.824 803.499,36.638 803.495,45.000 C803.491,53.355 803.169,55.110 800.823,59.563 C797.817,65.269 791.319,71.631 787.525,72.583 C783.978,73.473 784.380,74.498 788.798,75.821 C790.886,76.447 794.686,78.344 797.241,80.036 C816.995,93.121 812.739,127.977 789.980,139.510 C779.310,144.917 776.447,145.234 733.743,145.730 L693.986,146.192 L694.243,77.346 Z M768.541,120.120 C782.747,113.668 781.910,94.585 767.228,90.186 C764.776,89.452 756.032,89.000 744.263,89.000 L725.258,89.000 L724.576,94.141 C723.851,99.600 723.925,119.986 724.674,121.250 C724.918,121.662 733.979,121.990 744.809,121.978 C761.748,121.959 765.065,121.699 768.541,120.120 Z M764.997,62.446 C770.369,59.290 773.000,54.668 773.000,48.387 C773.000,43.873 772.534,42.539 769.918,39.559 C768.189,37.590 765.225,35.601 763.168,35.030 C761.150,34.470 751.765,34.009 742.311,34.006 L725.123,34.000 L724.541,38.250 C724.087,41.568 724.371,63.300 724.889,64.829 C724.950,65.011 733.212,65.011 743.250,64.829 C759.503,64.536 761.883,64.275 764.997,62.446 Z M821.240,97.250 L821.500,48.500 L835.877,48.500 L850.254,48.500 L850.244,87.500 C850.239,108.950 850.182,130.887 850.117,136.250 L850.000,146.000 L835.490,146.000 L820.981,146.000 L821.240,97.250 Z M829.500,37.542 C815.035,32.261 816.723,10.622 831.880,7.048 C843.139,4.392 852.860,12.701 851.769,24.049 C850.730,34.863 839.989,41.372 829.500,37.542 Z"/></svg>
